<?xml version="1.0" encoding="utf-8"?>
<!-- Generator: Adobe Illustrator 13.0.2, SVG Export Plug-In . SVG Version: 6.00 Build 14948)  -->
<!DOCTYPE svg PUBLIC "-//W3C//DTD SVG 1.1//EN" "http://www.w3.org/Graphics/SVG/1.1/DTD/svg11.dtd">
<svg version="1.1" id="Layer_1" xmlns="http://www.w3.org/2000/svg" xmlns:xlink="http://www.w3.org/1999/xlink" x="0px" y="0px"
	 width="345.515px" height="100.381px" viewBox="0 0 345.515 100.381" enable-background="new 0 0 345.515 100.381"
	 xml:space="preserve">
<path id="path6731-1" d="M-63.048-162.997c-5.836,0.042-10.67,0.466-14.763,2.325c-2.729,1.239-5.077,3.308-6.51,6.083
	c-1.431,2.776-2.015,6.086-2.015,10.055v54.809H-93v11.623h20.827v-11.623h-7.343v-54.809c0-3.286,0.518-5.497,1.26-6.936
	c0.742-1.438,1.644-2.252,3.255-2.984c3.221-1.463,9.446-1.81,18.037-1.686c1.876,0.169,3.533-1.215,3.701-3.091
	c0.169-1.875-1.215-3.533-3.091-3.701c-0.171-0.016-0.343-0.018-0.514-0.007C-59.044-162.971-61.103-163.011-63.048-162.997
	L-63.048-162.997z M-67.621-154.434c0,3.274,2.654,5.929,5.928,5.929c3.275,0,5.93-2.654,5.93-5.929h-5.93H-67.621z
	 M-66.923-149.823c-0.096,0.01-0.189,0.043-0.271,0.097l-4.088,2.363c-0.313,0.14-0.454,0.506-0.313,0.819
	c0.139,0.313,0.506,0.454,0.818,0.314c0.041-0.018,0.079-0.041,0.115-0.067l4.088-2.364c0.301-0.164,0.412-0.54,0.248-0.841
	C-66.443-149.718-66.677-149.844-66.923-149.823L-66.923-149.823z M-56.984-149.823c-0.34,0.043-0.58,0.353-0.537,0.693
	c0.025,0.2,0.146,0.375,0.323,0.469l4.089,2.364c0.275,0.203,0.663,0.144,0.866-0.132c0.203-0.275,0.144-0.664-0.132-0.867
	c-0.035-0.026-0.074-0.049-0.115-0.067l-4.088-2.363c-0.104-0.066-0.225-0.1-0.348-0.097
	C-56.946-149.823-56.964-149.823-56.984-149.823L-56.984-149.823z M-64.888-147.711c-0.186,0.04-0.342,0.161-0.426,0.33
	l-2.365,4.088c-0.17,0.299-0.066,0.681,0.232,0.853c0.301,0.171,0.682,0.067,0.854-0.232l2.363-4.088
	c0.186-0.289,0.101-0.672-0.188-0.856c-0.123-0.079-0.269-0.111-0.413-0.093c-0.019,0-0.037,0-0.056,0h-0.001V-147.711z
	 M-59.077-147.711c-0.341,0.033-0.591,0.335-0.559,0.676c0.009,0.097,0.042,0.191,0.094,0.273l2.364,4.088
	c0.171,0.3,0.553,0.404,0.852,0.233c0.301-0.171,0.404-0.553,0.232-0.853l0,0l-2.363-4.088c-0.109-0.208-0.327-0.334-0.562-0.33
	c-0.018-0.001-0.037-0.001-0.055,0L-59.077-147.711L-59.077-147.711z M-61.962-146.936c-0.32,0.04-0.556,0.317-0.543,0.639v4.727
	c-0.005,0.342,0.269,0.624,0.611,0.629c0.342,0.004,0.623-0.269,0.629-0.611c0-0.006,0-0.012,0-0.018v-4.727
	c0.013-0.342-0.254-0.63-0.596-0.644C-61.895-146.942-61.929-146.94-61.962-146.936z"/>
<path d="M109.603,73.224c0,0.696-0.021,1.287-0.062,1.774c-0.042,0.487-0.104,0.903-0.188,1.252
	c-0.083,0.348-0.195,0.646-0.333,0.896c-0.138,0.251-0.362,0.535-0.667,0.855c-0.306,0.321-0.897,0.729-1.773,1.23
	c-0.875,0.501-1.946,0.98-3.212,1.439c-1.266,0.458-2.712,0.842-4.338,1.148c-1.627,0.306-3.386,0.458-5.277,0.458
	c-3.699,0-7.037-0.57-10.011-1.711c-2.976-1.139-5.506-2.842-7.593-5.109c-2.086-2.266-3.686-5.096-4.797-8.489
	c-1.113-3.393-1.668-7.342-1.668-11.847c0-4.589,0.611-8.662,1.835-12.223c1.225-3.559,2.934-6.549,5.132-8.969
	c2.197-2.419,4.831-4.255,7.905-5.506c3.074-1.251,6.459-1.877,10.157-1.877c1.502,0,2.948,0.125,4.338,0.375
	c1.391,0.25,2.678,0.577,3.858,0.98c1.182,0.403,2.246,0.869,3.191,1.397c0.945,0.529,1.606,0.98,1.98,1.356
	c0.376,0.375,0.633,0.688,0.772,0.938c0.138,0.25,0.25,0.57,0.333,0.959c0.083,0.39,0.146,0.849,0.188,1.376
	c0.041,0.529,0.062,1.182,0.062,1.96c0,0.834-0.028,1.543-0.084,2.127c-0.056,0.583-0.153,1.057-0.292,1.418
	c-0.139,0.362-0.306,0.626-0.5,0.792c-0.194,0.166-0.416,0.251-0.667,0.251c-0.417,0-0.946-0.244-1.585-0.73
	c-0.641-0.486-1.467-1.028-2.483-1.626c-1.015-0.598-2.225-1.14-3.629-1.626c-1.405-0.487-3.08-0.729-5.027-0.729
	c-2.141,0-4.053,0.438-5.735,1.313c-1.684,0.877-3.115,2.128-4.297,3.755c-1.182,1.626-2.079,3.594-2.689,5.902
	c-0.612,2.309-0.919,4.909-0.919,7.802c0,3.171,0.328,5.918,0.981,8.238c0.652,2.322,1.584,4.235,2.795,5.736
	c1.21,1.502,2.67,2.621,4.381,3.357c1.709,0.736,3.635,1.106,5.777,1.106c1.946,0,3.629-0.229,5.047-0.688
	c1.419-0.458,2.635-0.966,3.65-1.523c1.015-0.556,1.85-1.057,2.503-1.501c0.654-0.444,1.161-0.668,1.523-0.668
	c0.278,0,0.5,0.057,0.668,0.167c0.167,0.111,0.305,0.334,0.416,0.668c0.111,0.332,0.194,0.8,0.251,1.396
	C109.575,71.425,109.603,72.224,109.603,73.224z"/>
<path d="M126.287,30.175c0,2.113-0.432,3.574-1.293,4.381c-0.863,0.806-2.462,1.21-4.797,1.21c-2.364,0-3.956-0.39-4.775-1.168
	c-0.821-0.779-1.232-2.183-1.232-4.213c0-2.113,0.424-3.58,1.272-4.401c0.848-0.819,2.454-1.23,4.819-1.23
	c2.336,0,3.921,0.396,4.754,1.189C125.869,26.733,126.287,28.145,126.287,30.175z M125.495,79.983c0,0.278-0.084,0.521-0.25,0.729
	c-0.167,0.209-0.452,0.382-0.855,0.521c-0.404,0.139-0.938,0.243-1.605,0.313c-0.667,0.069-1.516,0.104-2.545,0.104
	c-1.03,0-1.877-0.035-2.545-0.104c-0.667-0.07-1.203-0.175-1.605-0.313c-0.403-0.139-0.688-0.312-0.855-0.521
	c-0.167-0.209-0.25-0.451-0.25-0.729V42.856c0-0.278,0.083-0.521,0.25-0.729c0.167-0.209,0.452-0.39,0.855-0.543
	c0.403-0.152,0.938-0.271,1.605-0.354s1.515-0.125,2.545-0.125c1.029,0,1.878,0.042,2.545,0.125
	c0.667,0.083,1.202,0.202,1.605,0.354c0.404,0.154,0.688,0.333,0.855,0.543c0.167,0.208,0.25,0.452,0.25,0.729V79.983z"/>
<path d="M156.11,76.312c0,1.224-0.077,2.162-0.229,2.815c-0.153,0.653-0.355,1.113-0.605,1.377c-0.25,0.265-0.619,0.5-1.106,0.709
	c-0.487,0.209-1.057,0.389-1.71,0.542c-0.653,0.152-1.363,0.271-2.128,0.354c-0.764,0.084-1.537,0.127-2.315,0.127
	c-2.085,0-3.893-0.267-5.422-0.795c-1.53-0.527-2.796-1.34-3.796-2.439c-1.001-1.1-1.739-2.482-2.21-4.15
	c-0.473-1.668-0.708-3.644-0.708-5.925V49.865h-4.464c-0.529,0-0.932-0.328-1.209-0.98c-0.279-0.653-0.418-1.746-0.418-3.275
	c0-0.806,0.035-1.487,0.104-2.044c0.069-0.556,0.173-0.995,0.313-1.313c0.138-0.319,0.312-0.548,0.521-0.688
	c0.209-0.139,0.451-0.208,0.73-0.208h4.422v-8.301c0-0.278,0.076-0.528,0.229-0.751c0.152-0.223,0.431-0.411,0.835-0.563
	c0.402-0.152,0.945-0.264,1.625-0.333c0.682-0.069,1.523-0.104,2.524-0.104c1.029,0,1.884,0.036,2.564,0.104
	c0.682,0.07,1.217,0.181,1.606,0.333c0.389,0.153,0.668,0.34,0.834,0.563c0.167,0.222,0.251,0.473,0.251,0.751v8.301h8.092
	c0.278,0,0.522,0.069,0.729,0.208c0.21,0.139,0.382,0.369,0.522,0.688c0.138,0.32,0.243,0.758,0.312,1.313
	c0.069,0.558,0.104,1.237,0.104,2.044c0,1.529-0.139,2.622-0.417,3.275c-0.279,0.652-0.683,0.98-1.21,0.98h-8.134v17.479
	c0,2.03,0.319,3.552,0.958,4.567c0.641,1.016,1.78,1.522,3.422,1.522c0.556,0,1.057-0.049,1.502-0.147
	c0.444-0.096,0.841-0.206,1.188-0.332c0.347-0.125,0.64-0.235,0.876-0.333c0.236-0.097,0.451-0.146,0.646-0.146
	c0.167,0,0.327,0.05,0.48,0.146c0.153,0.098,0.271,0.293,0.354,0.583c0.083,0.293,0.16,0.688,0.229,1.19
	C156.075,74.896,156.11,75.532,156.11,76.312z"/>
<path d="M183.39,81.4l-4.506,13.182c-0.25,0.695-0.932,1.196-2.044,1.503c-1.113,0.305-2.739,0.459-4.88,0.459
	c-1.113,0-2.002-0.05-2.67-0.146s-1.168-0.256-1.502-0.479c-0.334-0.225-0.515-0.501-0.542-0.835s0.056-0.737,0.25-1.209
	l4.965-12.474c-0.363-0.167-0.688-0.424-0.981-0.771c-0.292-0.347-0.508-0.717-0.646-1.105l-12.808-34.206
	c-0.361-0.974-0.542-1.717-0.542-2.232c0-0.515,0.167-0.918,0.5-1.209c0.333-0.293,0.897-0.494,1.69-0.605
	c0.793-0.11,1.842-0.167,3.149-0.167c1.195,0,2.141,0.021,2.836,0.062c0.694,0.042,1.237,0.146,1.627,0.312
	c0.388,0.167,0.681,0.425,0.876,0.772c0.194,0.348,0.389,0.841,0.583,1.48l8.761,24.904h0.125l8.01-25.406
	c0.167-0.723,0.381-1.202,0.646-1.438c0.264-0.236,0.701-0.411,1.312-0.522c0.611-0.111,1.682-0.167,3.213-0.167
	c1.194,0,2.188,0.056,2.981,0.167c0.792,0.112,1.378,0.321,1.753,0.626c0.375,0.306,0.563,0.716,0.563,1.23
	c0,0.515-0.111,1.12-0.334,1.815L183.39,81.4z"/>
<g>
	<g>
		<path d="M151.501-118.095c-1.65,0-1.953-0.852-0.674-1.894l16.867-13.724c1.279-1.042,3.375-1.042,4.654,0l16.865,13.724
			c1.28,1.042,0.978,1.894-0.673,1.894H151.501z"/>
		<path fill="none" stroke="#000000" stroke-linecap="round" d="M151.501-118.095c-1.65,0-1.953-0.852-0.674-1.894l16.867-13.724
			c1.279-1.042,3.375-1.042,4.654,0l16.865,13.724c1.28,1.042,0.978,1.894-0.673,1.894H151.501z"/>
	</g>
	<polygon fill="none" stroke="#000000" stroke-width="2" points="170.25,-91.403 161.458,-91.403 153.128,-118.309 170.25,-118.309 
			"/>
	<line fill="none" stroke="#000000" x1="153.128" y1="-118.309" x2="170.25" y2="-118.309"/>
	<polygon fill="none" stroke="#000000" stroke-width="2" points="170.25,-91.403 179.042,-91.403 187.371,-118.309 170.25,-118.309 
			"/>
	<rect x="167.705" y="-91.403" width="5.784" height="6.833"/>
	<g>
		<path d="M183.772-80.199c0.452,1.002-0.077,1.822-1.177,1.822h-23.303c-1.1,0-1.629-0.82-1.176-1.823l0.667-1.479
			c0.453-1.003,1.724-1.823,2.823-1.823h18.674c1.1,0,2.371,0.82,2.823,1.822L183.772-80.199z"/>
	</g>
	
		<line fill="none" stroke="#000000" stroke-width="1.5" stroke-linecap="round" x1="190.536" y1="-105.354" x2="196.703" y2="-105.354"/>
	
		<line fill="none" stroke="#000000" stroke-width="1.5" stroke-linecap="round" x1="190.497" y1="-109.245" x2="195.949" y2="-112.353"/>
	
		<line fill="none" stroke="#000000" stroke-width="1.5" stroke-linecap="round" x1="190.534" y1="-101.114" x2="196.11" y2="-98.277"/>
	
		<line fill="none" stroke="#000000" stroke-width="1.5" stroke-linecap="round" x1="151.201" y1="-105.853" x2="145.257" y2="-105.853"/>
	
		<line fill="none" stroke="#000000" stroke-width="1.5" stroke-linecap="round" x1="151.238" y1="-109.743" x2="145.984" y2="-112.853"/>
	
		<line fill="none" stroke="#000000" stroke-width="1.5" stroke-linecap="round" x1="151.203" y1="-101.611" x2="145.828" y2="-98.774"/>
</g>
<g>
	<path d="M258.559,79.074c-0.167,0.667-0.396,1.202-0.688,1.605s-0.729,0.71-1.314,0.918c-0.583,0.21-1.336,0.348-2.252,0.418
		c-0.919,0.068-2.087,0.104-3.503,0.104c-1.585,0-2.856-0.035-3.817-0.104c-0.959-0.07-1.716-0.21-2.273-0.418
		c-0.556-0.208-0.959-0.515-1.208-0.918c-0.251-0.403-0.445-0.938-0.585-1.605l-8.635-34.208h-0.085l-8.176,34.208
		c-0.139,0.639-0.333,1.162-0.583,1.563c-0.251,0.404-0.647,0.718-1.189,0.939c-0.542,0.223-1.279,0.368-2.211,0.438
		c-0.931,0.068-2.164,0.104-3.693,0.104c-1.611,0-2.898-0.035-3.858-0.104c-0.958-0.07-1.717-0.21-2.273-0.418
		c-0.556-0.208-0.958-0.515-1.21-0.918c-0.249-0.403-0.458-0.938-0.625-1.605l-12.264-47.097c-0.251-1-0.391-1.786-0.416-2.357
		c-0.027-0.569,0.132-1.008,0.48-1.313c0.347-0.306,0.917-0.493,1.711-0.563c0.792-0.07,1.896-0.104,3.315-0.104
		c1.307,0,2.342,0.021,3.108,0.062c0.764,0.042,1.342,0.14,1.73,0.293c0.389,0.153,0.652,0.375,0.792,0.667
		c0.14,0.292,0.251,0.702,0.334,1.231l9.47,41.339h0.041l9.844-41.047c0.112-0.528,0.259-0.96,0.44-1.293
		c0.18-0.333,0.487-0.591,0.918-0.772c0.432-0.18,1.021-0.305,1.773-0.375c0.75-0.07,1.751-0.104,3.004-0.104
		c1.335,0,2.398,0.028,3.189,0.083c0.793,0.057,1.405,0.175,1.837,0.355c0.431,0.181,0.744,0.437,0.938,0.771
		c0.194,0.334,0.346,0.779,0.457,1.335l10.18,41.047h0.085l9.47-41.214c0.082-0.445,0.194-0.827,0.331-1.147
		c0.14-0.319,0.405-0.569,0.794-0.751c0.388-0.18,0.946-0.305,1.667-0.375c0.725-0.07,1.74-0.104,3.045-0.104
		c1.224,0,2.177,0.035,2.857,0.104c0.685,0.069,1.176,0.257,1.482,0.563c0.305,0.306,0.438,0.758,0.396,1.355
		c-0.042,0.598-0.188,1.411-0.438,2.44L258.559,79.074z"/>
	<path d="M287.028,30.642c0,2.114-0.431,3.574-1.293,4.381c-0.862,0.806-2.462,1.21-4.798,1.21c-2.363,0-3.955-0.39-4.774-1.168
		c-0.822-0.779-1.233-2.183-1.233-4.214c0-2.113,0.426-3.579,1.273-4.401c0.849-0.82,2.455-1.231,4.818-1.231
		c2.337,0,3.92,0.396,4.755,1.189C286.61,27.201,287.028,28.612,287.028,30.642z M286.236,80.451c0,0.278-0.086,0.521-0.253,0.729
		c-0.167,0.209-0.449,0.382-0.854,0.521c-0.403,0.139-0.939,0.243-1.605,0.313c-0.668,0.068-1.517,0.104-2.546,0.104
		c-1.028,0-1.877-0.035-2.545-0.104c-0.668-0.07-1.203-0.175-1.604-0.313c-0.403-0.139-0.689-0.312-0.856-0.521
		c-0.166-0.209-0.249-0.451-0.249-0.729V43.324c0-0.278,0.083-0.521,0.249-0.729c0.167-0.21,0.453-0.39,0.856-0.543
		c0.401-0.152,0.937-0.271,1.604-0.354s1.517-0.125,2.545-0.125c1.029,0,1.878,0.041,2.546,0.125
		c0.666,0.083,1.202,0.202,1.605,0.354c0.405,0.154,0.688,0.333,0.854,0.543c0.167,0.208,0.253,0.451,0.253,0.729V80.451z"/>
	<path d="M321.023,69.938c0,2.114-0.396,3.976-1.187,5.59c-0.795,1.613-1.913,2.962-3.358,4.047
		c-1.447,1.085-3.157,1.897-5.134,2.441c-1.976,0.542-4.117,0.813-6.424,0.813c-1.39,0-2.717-0.104-3.984-0.314
		c-1.266-0.208-2.398-0.472-3.397-0.792c-1.001-0.319-1.835-0.646-2.503-0.981c-0.67-0.335-1.155-0.646-1.462-0.938
		c-0.306-0.292-0.542-0.752-0.709-1.378c-0.167-0.625-0.249-1.549-0.249-2.772c0-0.807,0.025-1.453,0.082-1.939
		c0.055-0.487,0.14-0.877,0.251-1.168c0.11-0.293,0.252-0.486,0.417-0.584c0.167-0.098,0.375-0.146,0.625-0.146
		c0.307,0,0.757,0.174,1.356,0.521c0.599,0.349,1.341,0.729,2.231,1.147c0.89,0.417,1.925,0.808,3.108,1.168
		c1.181,0.362,2.524,0.544,4.024,0.544c0.944,0,1.786-0.1,2.523-0.295c0.737-0.194,1.379-0.471,1.922-0.833
		c0.54-0.361,0.951-0.819,1.229-1.377c0.277-0.558,0.419-1.195,0.419-1.918c0-0.836-0.259-1.55-0.772-2.149
		c-0.515-0.598-1.197-1.118-2.044-1.564c-0.85-0.444-1.811-0.861-2.88-1.251c-1.07-0.391-2.169-0.821-3.295-1.294
		c-1.125-0.472-2.226-1.015-3.295-1.627c-1.072-0.609-2.031-1.362-2.878-2.252c-0.849-0.889-1.53-1.96-2.045-3.212
		c-0.516-1.251-0.772-2.754-0.772-4.505c0-1.78,0.35-3.415,1.044-4.902c0.693-1.487,1.696-2.759,3.001-3.817
		c1.311-1.056,2.901-1.877,4.778-2.46c1.878-0.584,3.983-0.875,6.319-0.875c1.168,0,2.3,0.083,3.4,0.25
		c1.098,0.167,2.094,0.376,2.98,0.626c0.89,0.25,1.642,0.522,2.254,0.813c0.61,0.292,1.049,0.542,1.312,0.751
		c0.265,0.209,0.453,0.417,0.565,0.626c0.109,0.208,0.192,0.458,0.249,0.751c0.057,0.292,0.104,0.653,0.146,1.084
		c0.04,0.432,0.062,0.967,0.062,1.605c0,0.752-0.022,1.363-0.062,1.835c-0.042,0.473-0.111,0.849-0.209,1.127
		c-0.097,0.277-0.229,0.466-0.396,0.563c-0.167,0.098-0.363,0.146-0.585,0.146c-0.25,0-0.641-0.146-1.169-0.437
		c-0.527-0.294-1.188-0.605-1.98-0.939c-0.794-0.334-1.71-0.646-2.753-0.939c-1.043-0.292-2.231-0.438-3.567-0.438
		c-0.945,0-1.765,0.098-2.46,0.292c-0.697,0.195-1.268,0.474-1.711,0.835c-0.446,0.361-0.78,0.787-1.001,1.271
		c-0.222,0.487-0.332,1.008-0.332,1.564c0,0.862,0.264,1.586,0.792,2.171c0.528,0.584,1.223,1.099,2.087,1.543
		c0.862,0.445,1.841,0.862,2.941,1.251c1.098,0.391,2.209,0.813,3.336,1.273c1.126,0.458,2.237,0.993,3.338,1.605
		c1.099,0.611,2.077,1.361,2.941,2.251c0.86,0.891,1.557,1.954,2.086,3.191C320.761,66.775,321.023,68.243,321.023,69.938z"/>
	<path d="M361.402,60.762c0,1.278-0.285,2.224-0.856,2.836c-0.57,0.61-1.354,0.917-2.355,0.917h-22.651
		c0,1.586,0.187,3.025,0.563,4.318c0.375,1.293,0.973,2.393,1.793,3.296s1.877,1.592,3.17,2.064
		c1.293,0.474,2.845,0.708,4.652,0.708c1.835,0,3.446-0.132,4.839-0.396c1.39-0.265,2.594-0.556,3.609-0.876
		c1.014-0.32,1.854-0.61,2.522-0.876c0.667-0.263,1.21-0.396,1.627-0.396c0.25,0,0.458,0.048,0.625,0.145
		c0.167,0.098,0.307,0.271,0.418,0.522c0.11,0.252,0.187,0.605,0.229,1.063c0.043,0.459,0.061,1.036,0.061,1.733
		c0,0.61-0.014,1.133-0.041,1.563c-0.026,0.431-0.068,0.8-0.126,1.106c-0.055,0.306-0.137,0.562-0.249,0.77
		c-0.112,0.21-0.258,0.412-0.438,0.606c-0.181,0.195-0.674,0.459-1.481,0.793c-0.807,0.334-1.835,0.66-3.086,0.979
		c-1.252,0.32-2.685,0.598-4.298,0.836c-1.612,0.233-3.337,0.354-5.173,0.354c-3.31,0-6.208-0.417-8.697-1.252
		c-2.487-0.835-4.566-2.099-6.236-3.796c-1.67-1.696-2.915-3.838-3.732-6.424c-0.821-2.587-1.232-5.618-1.232-9.095
		c0-3.31,0.431-6.291,1.293-8.947c0.862-2.656,2.112-4.909,3.753-6.758c1.642-1.85,3.637-3.26,5.986-4.234
		c2.352-0.974,5-1.459,7.947-1.459c3.114,0,5.778,0.458,7.992,1.376c2.209,0.918,4.022,2.19,5.442,3.816
		c1.418,1.626,2.462,3.553,3.13,5.778c0.666,2.225,0.998,4.645,0.998,7.258v1.67H361.402z M351.224,57.758
		c0.082-2.949-0.509-5.263-1.773-6.946c-1.268-1.681-3.222-2.523-5.862-2.523c-1.335,0-2.496,0.25-3.482,0.751
		c-0.988,0.5-1.808,1.175-2.46,2.022c-0.655,0.849-1.155,1.851-1.502,3.004c-0.349,1.154-0.551,2.384-0.607,3.692H351.224z"/>
</g>
<g>
	<path d="M249.794-75.877l4.086-2.369c0.312-0.14,0.453-0.506,0.311-0.819c-0.139-0.312-0.506-0.453-0.818-0.312
		c-0.041,0.019-0.078,0.04-0.115,0.067l-4.084,2.369"/>
	<path d="M239.798-76.93l-4.094-2.358c-0.275-0.203-0.662-0.144-0.865,0.132s-0.143,0.665,0.133,0.867
		c0.035,0.026,0.074,0.049,0.115,0.067l4.09,2.358"/>
	<path d="M247.816-77.884l2.355-4.091c0.188-0.288,0.1-0.672-0.188-0.855c-0.123-0.079-0.271-0.111-0.414-0.093
		c-0.02,0-0.037,0-0.057,0h-0.002c-0.186,0.039-0.342,0.161-0.424,0.331l-2.361,4.091"/>
	<path d="M242.236-78.501l-2.369-4.085c-0.109-0.208-0.328-0.334-0.562-0.329c-0.018-0.001-0.037-0.001-0.055,0h-0.004
		c-0.34,0.034-0.59,0.335-0.561,0.676c0.012,0.098,0.043,0.191,0.098,0.273l2.369,4.085"/>
	<path d="M245.099-78.656l-0.006-4.728c0.012-0.342-0.254-0.629-0.596-0.643c-0.035-0.001-0.068,0.001-0.102,0.005
		c-0.32,0.041-0.557,0.318-0.543,0.64l0.006,4.728"/>
</g>
<g>
	<g>
		<path d="M0.187,43.62c-1.65,0-1.953-0.852-0.673-1.894l20.405-16.603c1.28-1.042,3.375-1.042,4.654,0l20.403,16.603
			c1.28,1.042,0.977,1.894-0.673,1.894H0.187z"/>
		<path fill="none" stroke="#000000" stroke-linecap="round" d="M0.187,43.62c-1.65,0-1.953-0.852-0.673-1.894l20.405-16.603
			c1.28-1.042,3.375-1.042,4.654,0l20.403,16.603c1.28,1.042,0.977,1.894-0.673,1.894H0.187z"/>
	</g>
	<polygon fill="none" stroke="#000000" stroke-width="2" points="22.511,74.7 12.274,74.7 2.575,43.371 22.511,43.371 	"/>
	<line fill="none" stroke="#000000" x1="2.575" y1="43.371" x2="22.511" y2="43.371"/>
	<polygon fill="none" stroke="#000000" stroke-width="2" points="22.511,74.7 32.748,74.7 42.446,43.371 22.511,43.371 	"/>
	<rect x="19.547" y="74.7" width="6.735" height="7.955"/>
	<line fill="none" stroke="#000000" stroke-width="1.5" stroke-linecap="round" x1="46.131" y1="58.456" x2="53.312" y2="58.456"/>
	<line fill="none" stroke="#000000" stroke-width="1.5" stroke-linecap="round" x1="46.086" y1="53.925" x2="52.435" y2="50.307"/>
	<line fill="none" stroke="#000000" stroke-width="1.5" stroke-linecap="round" x1="46.129" y1="63.393" x2="52.622" y2="66.694"/>
	<line fill="none" stroke="#000000" stroke-width="1.5" stroke-linecap="round" x1="0.33" y1="57.876" x2="-6.59" y2="57.876"/>
	<line fill="none" stroke="#000000" stroke-width="1.5" stroke-linecap="round" x1="0.374" y1="53.345" x2="-5.745" y2="49.724"/>
	<line fill="none" stroke="#000000" stroke-width="1.5" stroke-linecap="round" x1="0.332" y1="62.812" x2="-5.926" y2="66.118"/>
</g>
</svg>
