<?xml version="1.0" ?><svg height="100" id="svg5139" version="1.1" width="100" xmlns="http://www.w3.org/2000/svg" xmlns:cc="http://creativecommons.org/ns#" xmlns:dc="http://purl.org/dc/elements/1.1/" xmlns:inkscape="http://www.inkscape.org/namespaces/inkscape" xmlns:rdf="http://www.w3.org/1999/02/22-rdf-syntax-ns#" xmlns:sodipodi="http://sodipodi.sourceforge.net/DTD/sodipodi-0.dtd" xmlns:svg="http://www.w3.org/2000/svg"><defs id="defs5141"/><g id="layer1" transform="translate(0,-952.36218)"><path d="m 60.584268,959.61361 c -5.836903,0.0416 -10.670094,0.46578 -14.763055,2.32485 -2.728435,1.23935 -5.076835,3.30735 -6.509558,6.08333 -1.431482,2.77598 -2.014863,6.08643 -2.014863,10.05497 l 0,54.80804 -6.664546,0 0,11.6243 20.826863,0 0,-11.6243 -7.342781,0 0,-54.80804 c 0,-3.28652 0.517666,-5.49723 1.259755,-6.93584 0.74147,-1.4383 1.644128,-2.25193 3.254779,-2.98349 3.2213,-1.46341 9.446297,-1.80977 18.037052,-1.68553 a 3.4101089,3.4101089 0 1 0 0.09671,-6.8002 c -2.176672,-0.0316 -4.234932,-0.0718 -6.18036,-0.0583 z m -4.572189,8.56317 c 0,3.27412 2.65404,5.92835 5.928037,5.92835 3.274617,0 5.928657,-2.65423 5.928657,-5.92835 l -5.928657,0 -5.928037,0 z m 0.697452,4.61094 a 0.62001981,0.62001981 0 0 0 -0.270921,0.0969 l -4.088002,2.36353 a 0.62001981,0.62001981 0 1 0 0.619958,1.06559 l 4.088001,-2.36359 a 0.62001981,0.62001981 0 0 0 -0.349036,-1.16242 z m 9.938544,0 a 0.62001981,0.62001981 0 0 0 -0.213265,1.16242 l 4.088002,2.36359 a 0.62001981,0.62001981 0 1 0 0.619958,-1.06559 l -4.088003,-2.36353 a 0.62001981,0.62001981 0 0 0 -0.348416,-0.0969 0.62001981,0.62001981 0 0 0 -0.0558,0 z m -7.904462,2.11176 a 0.62001981,0.62001981 0 0 0 -0.42591,0.32932 l -2.363899,4.08787 a 0.62478406,0.62478406 0 0 0 1.084926,0.61997 l 2.363899,-4.08789 a 0.62001981,0.62001981 0 0 0 -0.600739,-0.94927 0.62001981,0.62001981 0 0 0 -0.0558,0 z m 5.812104,0 a 0.62001981,0.62001981 0 0 0 -0.464967,0.94927 l 2.363899,4.08789 a 0.62478406,0.62478406 0 0 0 1.084926,-0.61997 l -2.363899,-4.08787 a 0.62001981,0.62001981 0 0 0 -0.561682,-0.32932 0.62001981,0.62001981 0 0 0 -0.0558,0 z m -2.886523,0.77495 a 0.62001981,0.62001981 0 0 0 -0.542463,0.6393 l 0,4.72718 a 0.62001981,0.62001981 0 1 0 1.239916,0 l 0,-4.72718 a 0.62001981,0.62001981 0 0 0 -0.697453,-0.6393 z" id="path6731-1" style="font-size:medium;font-style:normal;font-variant:normal;font-weight:normal;font-stretch:normal;text-indent:0;text-align:start;text-decoration:none;line-height:normal;letter-spacing:normal;word-spacing:normal;text-transform:none;direction:ltr;block-progression:tb;writing-mode:lr-tb;text-anchor:start;baseline-shift:baseline;color:#000000;fill:#000000;fill-opacity:1;stroke:none;stroke-width:11;marker:none;visibility:visible;display:inline;overflow:visible;enable-background:accumulate;font-family:Sans;-inkscape-font-specification:Sans"/></g></svg>