<?xml version="1.0" encoding="utf-8"?>
<!-- Generator: Adobe Illustrator 13.0.2, SVG Export Plug-In . SVG Version: 6.00 Build 14948)  -->
<!DOCTYPE svg PUBLIC "-//W3C//DTD SVG 1.1//EN" "http://www.w3.org/Graphics/SVG/1.1/DTD/svg11.dtd">
<svg version="1.1"
	 id="svg5139" xmlns:sodipodi="http://sodipodi.sourceforge.net/DTD/sodipodi-0.dtd" xmlns:dc="http://purl.org/dc/elements/1.1/" xmlns:inkscape="http://www.inkscape.org/namespaces/inkscape" xmlns:rdf="http://www.w3.org/1999/02/22-rdf-syntax-ns#" xmlns:cc="http://creativecommons.org/ns#" xmlns:svg="http://www.w3.org/2000/svg"
	 xmlns="http://www.w3.org/2000/svg" xmlns:xlink="http://www.w3.org/1999/xlink" x="0px" y="0px" width="100px" height="100px"
	 viewBox="0 0 100 100" enable-background="new 0 0 100 100" xml:space="preserve">
<rect x="-50.5" y="-50.5" fill="#FFCC00" width="200" height="198"/>
<g>
	<g>
		<path d="M-0.551-63.677c0,0.31-0.009,0.572-0.027,0.79c-0.019,0.217-0.047,0.402-0.084,0.558C-0.7-62.175-0.75-62.041-0.812-61.93
			s-0.161,0.238-0.297,0.381c-0.136,0.143-0.4,0.325-0.79,0.547c-0.39,0.224-0.868,0.438-1.431,0.644
			c-0.564,0.203-1.208,0.374-1.933,0.512c-0.725,0.135-1.509,0.203-2.351,0.203c-1.648,0-3.135-0.255-4.461-0.763
			c-1.326-0.507-2.454-1.266-3.382-2.276c-0.93-1.009-1.643-2.271-2.138-3.783c-0.496-1.512-0.744-3.271-0.744-5.278
			c0-2.043,0.272-3.859,0.818-5.446c0.545-1.586,1.307-2.918,2.286-3.996c0.979-1.078,2.153-1.896,3.522-2.454
			c1.37-0.558,2.878-0.836,4.526-0.836c0.669,0,1.313,0.056,1.933,0.167s1.193,0.257,1.719,0.437c0.526,0.18,1,0.387,1.422,0.623
			c0.421,0.235,0.715,0.437,0.883,0.604c0.167,0.167,0.282,0.306,0.344,0.418c0.061,0.112,0.111,0.254,0.148,0.428
			s0.065,0.378,0.083,0.613c0.019,0.236,0.028,0.527,0.028,0.873c0,0.372-0.013,0.688-0.038,0.948
			c-0.025,0.26-0.068,0.471-0.13,0.632c-0.062,0.161-0.136,0.279-0.223,0.353c-0.087,0.074-0.185,0.111-0.297,0.111
			c-0.186,0-0.421-0.108-0.706-0.325c-0.286-0.217-0.654-0.458-1.107-0.725c-0.452-0.267-0.991-0.508-1.617-0.725
			c-0.626-0.217-1.372-0.325-2.24-0.325c-0.954,0-1.805,0.195-2.555,0.585c-0.75,0.391-1.388,0.948-1.915,1.673
			c-0.526,0.725-0.927,1.602-1.198,2.63c-0.273,1.028-0.41,2.187-0.41,3.477c0,1.413,0.146,2.636,0.437,3.669
			c0.291,1.036,0.706,1.888,1.246,2.557c0.539,0.669,1.189,1.167,1.952,1.496c0.762,0.328,1.62,0.493,2.574,0.493
			c0.867,0,1.617-0.102,2.249-0.308c0.632-0.203,1.175-0.429,1.626-0.679c0.452-0.246,0.824-0.47,1.116-0.667
			c0.291-0.199,0.517-0.298,0.678-0.298c0.124,0,0.223,0.025,0.297,0.074c0.074,0.049,0.136,0.148,0.186,0.296
			c0.049,0.149,0.087,0.358,0.112,0.623C-0.564-64.479-0.551-64.123-0.551-63.677z"/>
		<path d="M6.882-82.858c0,0.941-0.192,1.592-0.577,1.952c-0.384,0.36-1.097,0.54-2.137,0.54c-1.053,0-1.763-0.174-2.128-0.521
			c-0.365-0.347-0.548-0.973-0.548-1.877c0-0.942,0.189-1.595,0.566-1.961c0.378-0.365,1.094-0.548,2.147-0.548
			c1.041,0,1.748,0.177,2.119,0.53C6.696-84.392,6.882-83.763,6.882-82.858z M6.529-60.665c0,0.124-0.038,0.231-0.111,0.324
			c-0.075,0.093-0.201,0.171-0.381,0.232C5.857-60.046,5.619-60,5.321-59.97c-0.298,0.032-0.675,0.047-1.134,0.047
			c-0.459,0-0.837-0.015-1.134-0.047C2.756-60,2.517-60.046,2.338-60.108c-0.18-0.061-0.307-0.14-0.381-0.232
			c-0.075-0.093-0.112-0.2-0.112-0.324v-16.543c0-0.123,0.037-0.232,0.112-0.325c0.074-0.093,0.201-0.173,0.381-0.241
			c0.179-0.068,0.418-0.121,0.715-0.158s0.675-0.056,1.134-0.056c0.458,0,0.836,0.019,1.134,0.056
			c0.297,0.037,0.536,0.09,0.715,0.158c0.18,0.068,0.306,0.148,0.381,0.241c0.074,0.093,0.111,0.202,0.111,0.325V-60.665z"/>
		<path d="M20.17-62.302c0,0.547-0.034,0.964-0.102,1.255c-0.068,0.291-0.158,0.496-0.27,0.613
			c-0.111,0.118-0.275,0.223-0.493,0.316c-0.217,0.092-0.471,0.173-0.762,0.242c-0.291,0.067-0.607,0.119-0.948,0.157
			c-0.34,0.037-0.685,0.056-1.031,0.056c-0.93,0-1.735-0.118-2.416-0.354c-0.682-0.235-1.246-0.597-1.692-1.087
			s-0.774-1.105-0.984-1.85c-0.211-0.743-0.316-1.623-0.316-2.64v-8.493H9.167c-0.236,0-0.416-0.146-0.539-0.437
			c-0.125-0.291-0.187-0.779-0.187-1.459c0-0.359,0.016-0.663,0.047-0.911c0.031-0.248,0.078-0.443,0.14-0.585
			c0.061-0.143,0.139-0.245,0.232-0.307c0.093-0.062,0.201-0.093,0.325-0.093h1.971v-3.699c0-0.124,0.034-0.235,0.102-0.334
			c0.067-0.099,0.192-0.183,0.372-0.251c0.18-0.068,0.421-0.118,0.725-0.148c0.303-0.031,0.678-0.046,1.124-0.046
			c0.459,0,0.84,0.016,1.143,0.046c0.304,0.032,0.542,0.081,0.716,0.148c0.173,0.069,0.297,0.152,0.372,0.251
			c0.075,0.099,0.112,0.21,0.112,0.334v3.699h3.606c0.124,0,0.232,0.031,0.325,0.093c0.093,0.062,0.17,0.165,0.232,0.307
			c0.062,0.143,0.108,0.338,0.14,0.585c0.031,0.248,0.046,0.551,0.046,0.911c0,0.681-0.062,1.168-0.186,1.459
			c-0.125,0.291-0.304,0.437-0.54,0.437h-3.624v7.788c0,0.904,0.143,1.583,0.427,2.035c0.285,0.453,0.793,0.679,1.525,0.679
			c0.247,0,0.47-0.021,0.669-0.065c0.197-0.042,0.375-0.093,0.53-0.148c0.154-0.056,0.285-0.104,0.39-0.147
			c0.105-0.044,0.201-0.066,0.288-0.066c0.075,0,0.146,0.022,0.214,0.066c0.068,0.043,0.121,0.13,0.157,0.259
			c0.038,0.131,0.072,0.308,0.103,0.531C20.155-62.934,20.17-62.648,20.17-62.302z"/>
		<path d="M32.325-60.033l-2.007,5.872c-0.111,0.31-0.416,0.533-0.911,0.67c-0.497,0.136-1.221,0.204-2.175,0.204
			c-0.496,0-0.892-0.021-1.189-0.065c-0.297-0.043-0.521-0.113-0.669-0.214c-0.148-0.1-0.229-0.223-0.242-0.371
			c-0.012-0.149,0.025-0.329,0.112-0.539l2.212-5.557c-0.162-0.075-0.307-0.189-0.437-0.345c-0.13-0.155-0.227-0.319-0.289-0.493
			l-5.706-15.241c-0.161-0.434-0.241-0.764-0.241-0.994c0-0.229,0.074-0.41,0.223-0.539c0.148-0.131,0.399-0.221,0.753-0.27
			c0.353-0.049,0.821-0.074,1.403-0.074c0.533,0,0.954,0.009,1.264,0.027c0.31,0.019,0.551,0.065,0.725,0.139
			c0.174,0.075,0.304,0.189,0.391,0.344c0.087,0.156,0.173,0.375,0.26,0.66l3.903,11.096h0.056l3.568-11.32
			c0.075-0.322,0.17-0.536,0.289-0.641c0.117-0.105,0.312-0.183,0.585-0.232c0.272-0.05,0.75-0.075,1.431-0.075
			c0.532,0,0.976,0.025,1.329,0.075c0.353,0.05,0.613,0.143,0.78,0.278c0.167,0.137,0.251,0.319,0.251,0.549
			c0,0.229-0.049,0.499-0.148,0.809L32.325-60.033z"/>
		<path d="M68.915-61.279c-0.073,0.298-0.176,0.536-0.306,0.716c-0.131,0.18-0.325,0.315-0.586,0.408
			c-0.259,0.094-0.595,0.155-1.003,0.186c-0.41,0.032-0.931,0.047-1.561,0.047c-0.707,0-1.273-0.015-1.7-0.047
			c-0.429-0.03-0.767-0.092-1.014-0.186c-0.247-0.093-0.428-0.229-0.538-0.408c-0.113-0.18-0.199-0.418-0.261-0.716L58.1-76.521
			h-0.037l-3.644,15.241c-0.062,0.286-0.148,0.519-0.26,0.697c-0.112,0.18-0.288,0.318-0.53,0.418
			c-0.24,0.1-0.569,0.164-0.984,0.194c-0.416,0.032-0.965,0.047-1.645,0.047c-0.719,0-1.293-0.015-1.72-0.047
			c-0.428-0.03-0.765-0.092-1.013-0.186c-0.248-0.093-0.427-0.229-0.538-0.408s-0.206-0.418-0.279-0.716l-5.464-20.984
			c-0.111-0.446-0.174-0.796-0.186-1.05c-0.012-0.253,0.059-0.449,0.214-0.585c0.154-0.136,0.408-0.219,0.763-0.251
			c0.353-0.031,0.845-0.046,1.477-0.046c0.582,0,1.044,0.01,1.385,0.028c0.341,0.019,0.599,0.062,0.772,0.131
			c0.172,0.067,0.289,0.167,0.353,0.297c0.062,0.13,0.112,0.312,0.149,0.548l4.22,18.418h0.018l4.386-18.288
			c0.051-0.236,0.115-0.428,0.196-0.577c0.08-0.148,0.218-0.263,0.408-0.344c0.192-0.08,0.456-0.136,0.791-0.167
			c0.334-0.031,0.779-0.046,1.339-0.046c0.594,0,1.068,0.012,1.421,0.037c0.354,0.025,0.626,0.078,0.817,0.158
			c0.191,0.081,0.331,0.195,0.418,0.344c0.088,0.149,0.154,0.348,0.205,0.595l4.535,18.288h0.038l4.219-18.363
			c0.036-0.198,0.087-0.368,0.147-0.511c0.062-0.142,0.181-0.253,0.353-0.334c0.174-0.08,0.423-0.136,0.744-0.167
			c0.322-0.03,0.774-0.045,1.356-0.045c0.546,0,0.971,0.015,1.273,0.045c0.304,0.031,0.523,0.115,0.66,0.251
			c0.136,0.137,0.195,0.338,0.176,0.604c-0.019,0.267-0.083,0.628-0.194,1.087L68.915-61.279z"/>
		<path d="M82.019-82.858c0,0.941-0.192,1.592-0.576,1.952c-0.384,0.36-1.097,0.54-2.138,0.54c-1.054,0-1.763-0.174-2.127-0.521
			c-0.366-0.347-0.55-0.973-0.55-1.877c0-0.942,0.189-1.595,0.566-1.961c0.38-0.365,1.095-0.548,2.147-0.548
			c1.041,0,1.748,0.177,2.118,0.53C81.832-84.392,82.019-83.763,82.019-82.858z M81.665-60.665c0,0.124-0.037,0.231-0.111,0.324
			c-0.075,0.093-0.202,0.171-0.382,0.232c-0.18,0.062-0.418,0.108-0.715,0.139c-0.298,0.032-0.676,0.047-1.134,0.047
			c-0.459,0-0.837-0.015-1.134-0.047c-0.298-0.03-0.536-0.076-0.715-0.139c-0.181-0.061-0.308-0.14-0.383-0.232
			c-0.074-0.093-0.111-0.2-0.111-0.324v-16.542c0-0.124,0.037-0.233,0.111-0.326c0.075-0.093,0.202-0.173,0.383-0.241
			c0.179-0.068,0.417-0.121,0.715-0.158c0.297-0.037,0.675-0.056,1.134-0.056c0.458,0,0.836,0.019,1.134,0.056
			c0.297,0.038,0.535,0.09,0.715,0.158c0.18,0.068,0.307,0.148,0.382,0.241c0.074,0.093,0.111,0.202,0.111,0.326V-60.665z"/>
		<path d="M97.166-65.35c0,0.94-0.178,1.771-0.529,2.491c-0.354,0.718-0.852,1.318-1.496,1.802
			c-0.646,0.483-1.407,0.846-2.288,1.087c-0.88,0.242-1.833,0.363-2.861,0.363c-0.62,0-1.212-0.046-1.775-0.14
			c-0.563-0.093-1.068-0.21-1.514-0.353c-0.446-0.143-0.818-0.288-1.116-0.438c-0.298-0.148-0.515-0.287-0.65-0.418
			c-0.136-0.13-0.242-0.335-0.316-0.613c-0.074-0.279-0.112-0.69-0.112-1.235c0-0.36,0.012-0.647,0.038-0.865
			c0.024-0.217,0.062-0.391,0.112-0.52c0.049-0.132,0.11-0.218,0.186-0.261c0.074-0.043,0.166-0.064,0.278-0.064
			c0.136,0,0.337,0.076,0.604,0.231c0.266,0.156,0.598,0.325,0.994,0.511c0.396,0.187,0.857,0.36,1.385,0.521
			c0.526,0.162,1.125,0.242,1.793,0.242c0.421,0,0.796-0.043,1.125-0.13c0.328-0.087,0.613-0.211,0.855-0.372
			c0.241-0.161,0.424-0.365,0.548-0.613c0.124-0.249,0.187-0.532,0.187-0.854c0-0.372-0.115-0.69-0.344-0.958
			c-0.229-0.266-0.534-0.499-0.911-0.696c-0.377-0.199-0.806-0.385-1.283-0.557c-0.477-0.175-0.966-0.367-1.467-0.578
			c-0.502-0.21-0.992-0.452-1.469-0.725c-0.478-0.273-0.905-0.607-1.283-1.003c-0.378-0.396-0.681-0.875-0.909-1.431
			c-0.23-0.558-0.345-1.227-0.345-2.008c0-0.792,0.155-1.52,0.464-2.184c0.31-0.662,0.756-1.229,1.338-1.701
			c0.583-0.47,1.292-0.836,2.129-1.096s1.775-0.39,2.815-0.39c0.521,0,1.024,0.037,1.516,0.112c0.489,0.074,0.933,0.167,1.327,0.278
			c0.396,0.112,0.732,0.233,1.004,0.363c0.272,0.13,0.468,0.242,0.586,0.334c0.117,0.094,0.202,0.186,0.251,0.28
			c0.05,0.092,0.087,0.204,0.111,0.334c0.025,0.13,0.047,0.291,0.065,0.483c0.018,0.192,0.028,0.431,0.028,0.716
			c0,0.335-0.011,0.606-0.028,0.818c-0.019,0.21-0.049,0.377-0.093,0.501s-0.103,0.208-0.177,0.25
			c-0.074,0.044-0.162,0.065-0.261,0.065c-0.111,0-0.286-0.065-0.52-0.195c-0.235-0.13-0.529-0.27-0.883-0.418
			c-0.354-0.148-0.762-0.288-1.228-0.418c-0.465-0.13-0.994-0.196-1.589-0.196c-0.422,0-0.787,0.044-1.097,0.13
			c-0.311,0.087-0.564,0.211-0.763,0.372c-0.198,0.161-0.347,0.35-0.445,0.566c-0.099,0.218-0.147,0.45-0.147,0.698
			c0,0.383,0.117,0.706,0.352,0.967c0.236,0.26,0.546,0.489,0.932,0.687c0.383,0.198,0.819,0.385,1.31,0.558
			c0.489,0.173,0.985,0.362,1.487,0.567c0.501,0.204,0.996,0.442,1.487,0.715c0.488,0.273,0.925,0.606,1.31,1.003
			c0.384,0.396,0.694,0.871,0.93,1.422C97.05-66.759,97.166-66.104,97.166-65.35z"/>
		<path d="M115.156-69.439c0,0.57-0.127,0.992-0.381,1.264c-0.254,0.272-0.604,0.409-1.051,0.409h-10.092
			c0,0.706,0.084,1.348,0.25,1.924c0.169,0.576,0.436,1.066,0.8,1.468c0.365,0.403,0.837,0.71,1.413,0.92
			c0.575,0.211,1.266,0.316,2.072,0.316c0.817,0,1.536-0.059,2.156-0.177c0.619-0.118,1.154-0.247,1.607-0.39
			c0.452-0.144,0.827-0.272,1.125-0.392c0.296-0.116,0.538-0.177,0.724-0.177c0.112,0,0.205,0.022,0.279,0.065
			c0.074,0.044,0.137,0.12,0.187,0.232c0.049,0.112,0.083,0.271,0.102,0.474c0.02,0.204,0.027,0.463,0.027,0.772
			c0,0.272-0.007,0.505-0.02,0.696c-0.011,0.192-0.029,0.356-0.056,0.493c-0.023,0.136-0.061,0.25-0.11,0.343
			c-0.05,0.094-0.115,0.185-0.195,0.271c-0.081,0.087-0.301,0.205-0.661,0.354c-0.358,0.148-0.817,0.294-1.374,0.436
			c-0.558,0.143-1.196,0.267-1.916,0.373c-0.718,0.104-1.486,0.157-2.304,0.157c-1.475,0-2.767-0.186-3.875-0.558
			c-1.109-0.372-2.035-0.936-2.779-1.69c-0.744-0.757-1.299-1.711-1.662-2.862c-0.366-1.153-0.55-2.504-0.55-4.052
			c0-1.475,0.192-2.804,0.576-3.988c0.384-1.183,0.941-2.187,1.672-3.01c0.732-0.825,1.621-1.453,2.668-1.887
			c1.048-0.434,2.228-0.65,3.54-0.65c1.389,0,2.575,0.205,3.562,0.613c0.984,0.409,1.792,0.976,2.424,1.7
			c0.633,0.725,1.098,1.583,1.396,2.574c0.297,0.992,0.445,2.07,0.445,3.233L115.156-69.439L115.156-69.439z M110.622-70.776
			c0.036-1.314-0.227-2.345-0.79-3.095c-0.565-0.75-1.436-1.125-2.613-1.125c-0.594,0-1.111,0.111-1.551,0.334
			c-0.441,0.223-0.806,0.524-1.096,0.901c-0.293,0.378-0.516,0.825-0.67,1.338c-0.155,0.515-0.244,1.062-0.271,1.646H110.622z"/>
	</g>
	<g>
		<path d="M81.655-85.897l1.71-0.99c0.13-0.059,0.189-0.212,0.129-0.343c-0.057-0.131-0.211-0.189-0.341-0.131
			c-0.019,0.008-0.033,0.017-0.049,0.028l-1.708,0.991"/>
		<path d="M77.475-86.337l-1.713-0.986c-0.114-0.085-0.276-0.06-0.361,0.056c-0.085,0.115-0.06,0.278,0.056,0.362
			c0.014,0.011,0.031,0.021,0.048,0.028l1.711,0.986"/>
		<path d="M80.828-86.736l0.985-1.711c0.078-0.121,0.042-0.281-0.078-0.357c-0.052-0.034-0.113-0.047-0.173-0.04
			c-0.008,0-0.016,0-0.024,0l0,0c-0.079,0.017-0.144,0.067-0.178,0.139l-0.987,1.711"/>
		<path d="M78.494-86.994l-0.99-1.709c-0.047-0.087-0.138-0.14-0.236-0.137c-0.007,0-0.015,0-0.023,0l0,0
			c-0.144,0.014-0.248,0.14-0.235,0.283c0.005,0.041,0.019,0.08,0.041,0.114l0.991,1.709"/>
		<path d="M79.691-87.059l-0.002-1.978c0.005-0.143-0.105-0.263-0.25-0.269c-0.014,0-0.027,0-0.042,0.002
			c-0.134,0.017-0.232,0.133-0.227,0.268l0.002,1.978"/>
	</g>
</g>
<path id="path6731-1" d="M-111.805,48.312c-5.836,0.042-10.67,0.466-14.764,2.325c-2.729,1.239-5.077,3.308-6.51,6.083
	c-1.431,2.775-2.015,6.086-2.015,10.055v54.809h-6.664v11.623h20.827v-11.623h-7.343V66.775c0-3.285,0.518-5.497,1.26-6.936
	c0.742-1.438,1.644-2.252,3.255-2.984c3.221-1.463,9.446-1.811,18.038-1.686c1.875,0.168,3.532-1.215,3.7-3.092
	c0.169-1.875-1.215-3.533-3.091-3.701c-0.171-0.016-0.343-0.018-0.514-0.007C-107.801,48.338-109.86,48.299-111.805,48.312
	L-111.805,48.312z M-116.379,56.875c0,3.274,2.654,5.93,5.929,5.93s5.93-2.654,5.93-5.93h-5.93H-116.379z M-115.68,61.486
	c-0.097,0.01-0.189,0.043-0.271,0.098l-4.088,2.363c-0.313,0.139-0.454,0.506-0.313,0.818c0.14,0.312,0.507,0.454,0.818,0.314
	c0.041-0.019,0.079-0.041,0.114-0.067l4.088-2.364c0.302-0.164,0.412-0.54,0.248-0.841C-115.2,61.592-115.434,61.466-115.68,61.486
	L-115.68,61.486z M-105.741,61.486c-0.341,0.043-0.58,0.354-0.537,0.693c0.024,0.199,0.146,0.375,0.323,0.469l4.089,2.364
	c0.274,0.203,0.663,0.144,0.866-0.132s0.144-0.664-0.133-0.867c-0.035-0.025-0.074-0.049-0.115-0.066l-4.088-2.363
	c-0.104-0.066-0.225-0.101-0.348-0.098C-105.703,61.486-105.721,61.486-105.741,61.486L-105.741,61.486z M-113.646,63.599
	c-0.187,0.04-0.342,0.161-0.426,0.33l-2.365,4.088c-0.17,0.299-0.065,0.681,0.232,0.853c0.301,0.172,0.682,0.067,0.854-0.231
	l2.362-4.088c0.187-0.289,0.101-0.673-0.188-0.856c-0.123-0.078-0.269-0.111-0.412-0.093c-0.02,0-0.037,0-0.057,0h-0.001V63.599z
	 M-107.834,63.599c-0.342,0.032-0.592,0.335-0.56,0.676c0.009,0.097,0.042,0.191,0.095,0.272l2.363,4.089
	c0.172,0.3,0.553,0.403,0.852,0.233c0.302-0.172,0.404-0.554,0.232-0.854l0,0l-2.363-4.088c-0.108-0.208-0.326-0.334-0.562-0.33
	c-0.019-0.001-0.037-0.001-0.056,0L-107.834,63.599L-107.834,63.599z M-110.719,64.373c-0.32,0.041-0.557,0.317-0.543,0.64v4.728
	c-0.006,0.342,0.269,0.623,0.61,0.629c0.343,0.004,0.623-0.27,0.629-0.611c0-0.006,0-0.012,0-0.018v-4.728
	c0.013-0.343-0.254-0.63-0.596-0.644C-110.652,64.367-110.687,64.369-110.719,64.373z"/>
<polyline fill="none" stroke="#000000" points="-83,44.5 -71,96 -54,96 -54,44.5 "/>
<line fill="none" stroke="#000000" stroke-width="2" stroke-linecap="round" x1="188.038" y1="40.053" x2="200.947" y2="31.398"/>
<line fill="none" stroke="#000000" stroke-width="2" stroke-linecap="round" x1="171.129" y1="98.745" x2="186" y2="104.5"/>
<line fill="none" stroke="#000000" stroke-width="2" stroke-linecap="round" x1="171.538" y1="24.553" x2="184.447" y2="15.898"/>
<g>
	<g>
		<path d="M17.793,33.208c-1.65,0-1.96-0.86-0.688-1.912L44.771,8.412c1.271-1.052,3.352-1.052,4.623,0L77.06,31.295
			c1.271,1.052,0.962,1.912-0.688,1.912H17.793z"/>
		<path fill="none" stroke="#000000" stroke-linecap="round" d="M17.793,33.208c-1.65,0-1.96-0.86-0.688-1.912L44.771,8.412
			c1.271-1.052,3.352-1.052,4.623,0L77.06,31.295c1.271,1.052,0.962,1.912-0.688,1.912H17.793z"/>
	</g>
	<polygon fill="none" stroke="#000000" stroke-width="3" points="47.964,73.919 34.555,73.919 21.851,32.881 47.964,32.881 	"/>
	<line fill="none" stroke="#000000" x1="21.851" y1="32.881" x2="47.964" y2="32.881"/>
	<polygon fill="none" stroke="#000000" stroke-width="3" points="47.964,73.919 61.374,73.919 74.078,32.881 47.964,32.881 	"/>
	<rect x="44.083" y="73.919" width="8.823" height="10.422"/>
	<g>
		<path d="M69.021,91.963c0.453,1.003-0.077,1.823-1.177,1.823H30.203c-1.1,0-1.63-0.82-1.177-1.823l1.883-4.17
			c0.453-1.003,1.723-1.823,2.823-1.823h30.583c1.1,0,2.37,0.82,2.823,1.823L69.021,91.963z"/>
	</g>
	<g>
		<line fill="none" stroke="#000000" stroke-width="2" stroke-linecap="round" x1="78.905" y1="52.641" x2="88.311" y2="52.641"/>
		<line fill="none" stroke="#000000" stroke-width="2" stroke-linecap="round" x1="78.846" y1="46.707" x2="87.161" y2="41.966"/>
		<line fill="none" stroke="#000000" stroke-width="2" stroke-linecap="round" x1="78.901" y1="59.108" x2="87.407" y2="63.435"/>
	</g>
	<g>
		<line fill="none" stroke="#000000" stroke-width="2" stroke-linecap="round" x1="18.91" y1="51.881" x2="9.846" y2="51.881"/>
		<line fill="none" stroke="#000000" stroke-width="2" stroke-linecap="round" x1="18.967" y1="45.946" x2="10.954" y2="41.205"/>
		<line fill="none" stroke="#000000" stroke-width="2" stroke-linecap="round" x1="18.914" y1="58.35" x2="10.716" y2="62.676"/>
	</g>
</g>
</svg>
